; NON-PLATED HOLES START AT T1
; THROUGH (PLATED) HOLES START AT T100
M48
INCH
T100C0.038000
T101C0.118110
T102C0.040255
T103C0.035000
%
T100
X006551Y010586
X005551Y010586
X004551Y010586
X007551Y010586
T101
X001551Y001586
X010551Y012586
X001551Y012586
X010551Y001586
T102
X007551Y007586
X006544Y007586
X004531Y007586
X004531Y008586
X005538Y008586
X006544Y008586
X005538Y007586
X007551Y008586
T103
X007551Y005586
X004551Y003641
X004551Y005586
X007551Y003641
T00
M30
